<?xml version="1.0" standalone="no"?>
<!DOCTYPE svg PUBLIC "-//W3C//DTD SVG 20010904//EN"
 "http://www.w3.org/TR/2001/REC-SVG-20010904/DTD/svg10.dtd">
<svg version="1.0" xmlns="http://www.w3.org/2000/svg"
 width="396.000000pt" height="301.000000pt" viewBox="0 0 396.000000 301.000000"
 preserveAspectRatio="xMidYMid meet">

<g transform="translate(0.000000,301.000000) scale(0.100000,-0.100000)"
fill="#000000" stroke="none">
<path d="M1365 2846 c-205 -35 -293 -70 -439 -175 -72 -51 -199 -181 -225
-229 -9 -18 0 -28 77 -90 150 -120 230 -177 237 -170 2 2 18 28 36 59 49 80
66 99 143 157 114 86 237 119 405 109 110 -7 178 -25 274 -73 112 -57 200 -42
261 43 39 55 40 126 2 183 -45 68 -189 137 -371 176 -98 22 -302 27 -400 10z"/>
<path d="M2354 2790 c-103 -51 -132 -192 -56 -273 51 -55 64 -57 292 -57 l210
0 1 -532 c1 -757 4 -831 31 -879 12 -22 31 -46 43 -53 64 -42 196 -43 257 -2
18 11 41 37 52 56 21 34 21 52 26 720 l5 685 227 5 c209 5 229 7 254 26 90 67
103 174 33 262 -50 63 -37 62 -717 62 -599 0 -618 -1 -658 -20z"/>
<path d="M190 2741 c0 -15 104 -98 310 -246 52 -37 111 -82 131 -99 20 -17 81
-66 135 -108 55 -43 133 -104 175 -137 187 -148 479 -309 682 -375 122 -41
276 -61 382 -51 l75 7 9 36 c5 21 13 59 17 86 l7 49 -39 -8 c-144 -27 -398
-19 -549 16 -228 53 -428 149 -629 301 -83 62 -177 134 -210 159 -34 25 -67
53 -75 62 -12 15 -9 17 30 17 41 1 43 2 25 15 -11 8 -35 15 -53 15 -54 0 -135
53 -119 79 7 11 94 31 136 31 17 0 30 5 30 11 0 21 -70 39 -152 39 -93 1 -141
15 -194 55 -37 28 -124 61 -124 46z"/>
<path d="M1442 2435 c-96 -23 -196 -82 -265 -154 -61 -65 -100 -127 -91 -143
21 -33 301 -137 442 -164 187 -37 394 -16 507 50 43 26 47 30 41 59 -11 52
-75 156 -133 213 -63 61 -183 125 -271 143 -69 14 -163 13 -230 -4z"/>
<path d="M608 2237 c-39 -132 -48 -195 -48 -328 0 -236 60 -426 186 -591 138
-179 377 -315 611 -348 130 -18 363 -8 468 19 81 22 242 96 281 129 34 29 54
77 54 127 0 74 -39 129 -112 160 -56 23 -84 19 -173 -24 -118 -58 -190 -74
-325 -74 -98 1 -127 5 -195 28 -81 27 -195 96 -239 145 -39 45 -106 161 -122
215 -26 85 -38 214 -27 289 l10 67 -55 50 c-30 28 -71 62 -91 77 -20 15 -68
55 -107 89 -39 35 -75 63 -80 63 -5 0 -21 -42 -36 -93z"/>
<path d="M1030 1993 c0 -10 17 -34 38 -53 185 -175 353 -298 503 -369 101 -48
259 -101 302 -101 20 0 154 127 144 136 -2 3 -44 6 -93 9 -222 11 -537 144
-807 343 -40 28 -75 52 -79 52 -5 0 -8 -8 -8 -17z"/>
<path d="M1020 1909 c0 -60 18 -140 52 -223 27 -64 46 -93 105 -153 77 -79
147 -119 260 -148 85 -22 266 -16 267 9 1 5 -26 18 -59 29 -124 42 -287 160
-450 328 -61 63 -125 132 -143 154 l-31 40 -1 -36z"/>
<path d="M2525 799 c-43 -12 -112 -73 -135 -120 -39 -75 -21 -190 38 -252 52
-54 87 -69 165 -70 140 -1 230 87 229 223 -1 158 -144 264 -297 219z m162 -87
c89 -63 83 -215 -9 -272 -43 -26 -123 -27 -161 -1 -99 65 -94 241 7 287 44 20
126 13 163 -14z"/>
<path d="M3025 803 c-76 -21 -116 -106 -83 -177 15 -35 41 -50 127 -76 104
-31 131 -63 92 -111 -32 -40 -116 -31 -198 21 -20 13 -25 13 -39 -2 -23 -22
-5 -51 48 -76 41 -20 79 -25 161 -23 56 1 107 52 114 114 5 43 3 49 -29 81
-23 23 -56 41 -103 55 -39 12 -80 28 -92 37 -31 19 -31 69 -1 85 30 16 91 13
128 -6 41 -21 74 -16 78 12 3 17 -6 27 -39 43 -42 22 -127 34 -164 23z"/>
<path d="M742 788 c-19 -19 -17 -402 2 -417 9 -8 61 -11 162 -9 l149 3 0 25 0
25 -127 3 -128 3 0 64 0 65 104 0 c108 0 133 9 120 44 -5 13 -24 16 -115 16
l-109 0 0 65 0 65 124 0 c105 0 125 2 130 16 14 37 -10 44 -158 44 -97 0 -146
-4 -154 -12z"/>
<path d="M1175 778 c-3 -13 -4 -111 -3 -218 l3 -195 30 0 30 0 3 153 c1 83 6
152 10 152 7 0 77 -87 140 -173 88 -121 105 -138 131 -135 l26 3 3 213 c2 190
1 213 -14 219 -9 3 -24 2 -33 -4 -13 -8 -17 -36 -21 -155 l-5 -146 -45 58
c-25 31 -79 100 -120 154 -62 80 -80 96 -102 96 -20 0 -29 -6 -33 -22z"/>
<path d="M1663 784 c-6 -16 10 -58 106 -283 85 -197 104 -197 191 9 28 69 65
156 81 194 31 74 27 100 -14 94 -16 -2 -35 -39 -88 -166 -37 -90 -70 -166 -72
-169 -6 -5 -27 40 -99 215 -45 108 -53 122 -75 122 -13 0 -26 -7 -30 -16z"/>
<path d="M2180 580 l0 -221 28 3 27 3 0 215 0 215 -27 3 -28 3 0 -221z"/>
</g>
</svg>
