<?xml version="1.0" standalone="no"?>
<!DOCTYPE svg PUBLIC "-//W3C//DTD SVG 20010904//EN"
 "http://www.w3.org/TR/2001/REC-SVG-20010904/DTD/svg10.dtd">
<svg version="1.0" xmlns="http://www.w3.org/2000/svg"
 width="225.000000pt" height="225.000000pt" viewBox="0 0 225.000000 225.000000"
 preserveAspectRatio="xMidYMid meet">

<g transform="translate(0.000000,225.000000) scale(0.100000,-0.100000)"
fill="#000000" stroke="none">
<path d="M1615 1383 c-229 -53 -266 -68 -294 -121 -17 -33 5 -56 75 -78 30 -9
57 -21 60 -26 13 -21 -135 -122 -153 -105 -4 4 -6 26 -6 48 1 28 -2 38 -10 34
-7 -4 -4 0 6 8 13 11 17 26 15 49 -3 29 -7 34 -42 43 -38 9 -40 8 -80 -36 -23
-25 -63 -87 -90 -138 -26 -51 -53 -94 -60 -95 -22 -6 -121 -37 -132 -42 -6 -3
-14 2 -18 11 -3 9 -2 14 3 11 11 -7 102 94 96 104 -3 4 2 13 10 20 8 7 15 9
15 4 0 -14 62 55 64 72 2 10 10 18 20 20 23 3 43 21 49 43 3 14 -4 24 -28 36
-31 17 -34 17 -106 -8 -225 -79 -291 -106 -304 -127 -4 -7 3 -6 21 0 15 6 29
8 32 5 3 -3 0 -5 -6 -5 -7 0 -12 -4 -12 -9 0 -4 12 -6 28 -4 21 4 24 2 12 -6
-26 -19 7 -13 82 14 38 14 74 25 81 25 6 0 -14 -26 -44 -57 -64 -66 -153 -174
-170 -204 -9 -17 -7 -25 12 -45 28 -30 43 -30 113 1 31 14 63 25 71 25 7 0 20
6 27 13 11 10 48 20 48 12 0 -1 -7 -21 -15 -44 -8 -22 -10 -41 -5 -41 6 0 10
5 10 11 0 5 4 8 9 5 5 -4 12 0 15 6 4 7 4 -2 1 -21 -5 -33 -5 -33 28 16 17 27
37 58 43 68 9 17 85 63 105 65 4 0 12 -27 18 -60 8 -41 18 -63 31 -70 11 -6
20 -7 20 -3 0 4 6 1 13 -8 10 -13 12 -3 11 53 -1 90 5 118 25 118 25 0 141 58
141 70 0 6 3 9 8 6 4 -2 16 2 27 10 10 8 15 14 9 14 -5 0 5 8 23 16 40 20 55
60 38 101 -10 23 -25 35 -62 48 -26 10 -51 21 -56 25 -4 3 38 19 93 35 55 17
100 33 100 37 0 5 -4 8 -10 8 -5 0 -10 7 -10 15 0 8 6 15 14 15 8 0 18 5 21
10 6 10 3 11 -30 3z m-68 -49 c-3 -3 -12 -4 -19 -1 -8 3 -5 6 6 6 11 1 17 -2
13 -5z m-72 -24 c-3 -5 -11 -10 -16 -10 -6 0 -7 5 -4 10 3 6 11 10 16 10 6 0
7 -4 4 -10z m-75 -24 c0 -3 -4 -8 -10 -11 -5 -3 -10 -1 -10 4 0 6 5 11 10 11
6 0 10 -2 10 -4z m0 -56 c0 -5 -2 -10 -4 -10 -3 0 -8 5 -11 10 -3 6 -1 10 4
10 6 0 11 -4 11 -10z m80 -26 c0 -2 -7 -4 -15 -4 -8 0 -15 4 -15 10 0 5 7 7
15 4 8 -4 15 -8 15 -10z m-430 2 c0 -2 -7 -7 -16 -10 -8 -3 -12 -2 -9 4 6 10
25 14 25 6z m197 -38 c-3 -8 -6 -5 -6 6 -1 11 2 17 5 13 3 -3 4 -12 1 -19z
m-302 2 c-3 -5 -11 -10 -16 -10 -6 0 -7 5 -4 10 3 6 11 10 16 10 6 0 7 -4 4
-10z m562 -22 c-3 -8 -6 -5 -6 6 -1 11 2 17 5 13 3 -3 4 -12 1 -19z m-647 -8
c0 -5 -8 -10 -17 -10 -15 0 -16 2 -3 10 19 12 20 12 20 0z m165 0 c-3 -5 -11
-10 -16 -10 -6 0 -7 5 -4 10 3 6 11 10 16 10 6 0 7 -4 4 -10z m165 -15 c-7 -9
-15 -13 -17 -11 -7 7 7 26 19 26 6 0 6 -6 -2 -15z m60 -40 c0 -8 -4 -15 -10
-15 -5 0 -7 7 -4 15 4 8 8 15 10 15 2 0 4 -7 4 -15z m-285 -5 c-3 -5 -11 -10
-16 -10 -6 0 -7 5 -4 10 3 6 11 10 16 10 6 0 7 -4 4 -10z m485 6 c0 -3 -4 -8
-10 -11 -5 -3 -10 -1 -10 4 0 6 5 11 10 11 6 0 10 -2 10 -4z m-305 -35 c-3 -6
-11 -11 -17 -11 -6 0 -6 6 2 15 14 17 26 13 15 -4z m58 -15 c-3 -13 -14 -26
-24 -29 -23 -6 -24 2 -3 31 20 29 32 28 27 -2z m177 0 c0 -2 -7 -6 -15 -10 -8
-3 -15 -1 -15 4 0 6 7 10 15 10 8 0 15 -2 15 -4z m-480 -26 c0 -5 -5 -10 -11
-10 -5 0 -7 5 -4 10 3 6 8 10 11 10 2 0 4 -4 4 -10z m365 -10 c-3 -5 -11 -10
-16 -10 -6 0 -7 5 -4 10 3 6 11 10 16 10 6 0 7 -4 4 -10z m-325 -4 c0 -2 -8
-10 -17 -17 -16 -13 -17 -12 -4 4 13 16 21 21 21 13z m257 -22 c-3 -3 -12 -4
-19 -1 -8 3 -5 6 6 6 11 1 17 -2 13 -5z m-87 -24 c0 -5 -8 -10 -17 -10 -15 0
-16 2 -3 10 19 12 20 12 20 0z m-83 -26 c-3 -3 -12 -4 -19 -1 -8 3 -5 6 6 6
11 1 17 -2 13 -5z m-70 -20 c-3 -3 -12 -4 -19 -1 -8 3 -5 6 6 6 11 1 17 -2 13
-5z m-87 -24 c0 -5 -5 -10 -11 -10 -5 0 -7 5 -4 10 3 6 8 10 11 10 2 0 4 -4 4
-10z m-80 -15 c-7 -9 -15 -13 -17 -11 -7 7 7 26 19 26 6 0 6 -6 -2 -15z"/>
</g>
</svg>
